<?xml version="1.0" encoding="utf-8"?>
<!-- Generator: Adobe Illustrator 23.0.6, SVG Export Plug-In . SVG Version: 6.00 Build 0)  -->
<svg version="1.1" id="Layer_1" xmlns="http://www.w3.org/2000/svg" xmlns:xlink="http://www.w3.org/1999/xlink" x="0px" y="0px"
	 viewBox="0 0 720 540" style="enable-background:new 0 0 720 540;" xml:space="preserve">
<style type="text/css">
	.st0{font-family:'ArialMT';}
	.st1{font-size:16px;}
	.st2{fill:none;}
	.st3{clip-path:url(#SVGID_2_);}
	.st4{clip-path:url(#SVGID_4_);}
	.st5{clip-path:url(#SVGID_6_);}
	.st6{clip-path:url(#SVGID_8_);}
	.st7{clip-path:url(#SVGID_10_);fill:#2F4F4F;}
	.st8{clip-path:url(#SVGID_12_);fill:#2F4F4F;}
	.st9{clip-path:url(#SVGID_14_);fill:#2F4F4F;}
	.st10{clip-path:url(#SVGID_2_);fill:none;stroke:#000000;stroke-width:0.8;stroke-linejoin:round;stroke-miterlimit:10;}
	.st11{clip-path:url(#SVGID_2_);fill:none;stroke:#000000;stroke-width:0.8;stroke-linecap:square;stroke-miterlimit:10;}
	.st12{opacity:0.8;fill:#FFFFFF;}
	.st13{opacity:0.8;fill:none;stroke:#CCCCCC;stroke-miterlimit:10;}
	.st14{clip-path:url(#SVGID_2_);fill:#2F4F4F;}
</style>
<text transform="matrix(1 0 0 1 262.708 115.6686)" class="st0 st1">Inducible promoters </text>
<rect x="446.4" y="197.6" class="st2" width="89.4" height="9.9"/>
<text transform="matrix(1 0 0 1 516.5332 172.6031)" class="st0 st1">Meyer et al. (2019)</text>
<rect x="447.1" y="156" class="st2" width="85.7" height="10.9"/>
<text transform="matrix(1 0 0 1 516.5332 266.2525)" class="st0 st1">Kluge et al. (2018)</text>
<rect x="447.5" y="232.4" class="st2" width="77.8" height="9.6"/>
<text transform="matrix(1 0 0 1 516.5342 341.3932)" class="st0 st1">Yarranton (1992) </text>
<rect x="448.1" y="243.9" class="st2" width="104.5" height="9.6"/>
<text transform="matrix(1 0 0 1 516.5342 359.8473)" class="st0 st1">Mullick et al. (2006)</text>
<rect x="447.8" y="255.4" class="st2" width="129.1" height="8.9"/>
<text transform="matrix(1 0 0 1 516.5547 378.3014)" class="st0 st1">Agrawal and Strayer (2008)</text>
<g>
	<defs>
		<rect id="SVGID_1_" x="48.3" y="101.6" width="470.9" height="329.6"/>
	</defs>
	<clipPath id="SVGID_2_">
		<use xlink:href="#SVGID_1_"  style="overflow:visible;"/>
	</clipPath>
	<g class="st3">
		<defs>
			<rect id="SVGID_3_" x="131.7" y="124.4" width="380.4" height="267.7"/>
		</defs>
		<clipPath id="SVGID_4_">
			<use xlink:href="#SVGID_3_"  style="overflow:visible;"/>
		</clipPath>
		<rect x="131.7" y="325.2" class="st4" width="62.1" height="44.6"/>
	</g>
	<g class="st3">
		<defs>
			<rect id="SVGID_5_" x="131.7" y="124.4" width="380.4" height="267.7"/>
		</defs>
		<clipPath id="SVGID_6_">
			<use xlink:href="#SVGID_5_"  style="overflow:visible;"/>
		</clipPath>
		<rect x="131.7" y="235.9" class="st5" width="217.4" height="44.6"/>
	</g>
	<g class="st3">
		<defs>
			<rect id="SVGID_7_" x="131.7" y="124.4" width="380.4" height="267.7"/>
		</defs>
		<clipPath id="SVGID_8_">
			<use xlink:href="#SVGID_7_"  style="overflow:visible;"/>
		</clipPath>
		<rect x="131.7" y="146.7" class="st6" width="155.3" height="44.6"/>
	</g>
	<g class="st3">
		<defs>
			<rect id="SVGID_9_" x="131.7" y="124.4" width="380.4" height="267.7"/>
		</defs>
		<clipPath id="SVGID_10_">
			<use xlink:href="#SVGID_9_"  style="overflow:visible;"/>
		</clipPath>
		<polygon class="st7" points="131.7,369.8 131.7,369.8 131.7,325.2 		"/>
	</g>
	<g class="st3">
		<defs>
			<rect id="SVGID_11_" x="131.7" y="124.4" width="380.4" height="267.7"/>
		</defs>
		<clipPath id="SVGID_12_">
			<use xlink:href="#SVGID_11_"  style="overflow:visible;"/>
		</clipPath>
		<polygon class="st8" points="131.7,280.5 131.7,280.5 131.7,235.9 		"/>
	</g>
	<g class="st3">
		<defs>
			<rect id="SVGID_13_" x="131.7" y="124.4" width="380.4" height="267.7"/>
		</defs>
		<clipPath id="SVGID_14_">
			<use xlink:href="#SVGID_13_"  style="overflow:visible;"/>
		</clipPath>
		<rect x="287" y="146.7" class="st9" width="207" height="44.6"/>
	</g>
	<line class="st3" x1="131.7" y1="392.1" x2="131.7" y2="394.4"/>
	<line class="st10" x1="131.7" y1="392.1" x2="131.7" y2="394.4"/>
	<path class="st3" d="M130.2,400.5c0,1.2,0.1,2.1,0.4,2.5c0.3,0.4,0.6,0.6,1.1,0.6c0.4,0,0.8-0.2,1.1-0.6c0.3-0.4,0.4-1.2,0.4-2.5
		c0-1.2-0.1-2.1-0.4-2.5c-0.3-0.4-0.6-0.6-1.1-0.6c-0.4,0-0.8,0.2-1,0.5C130.4,398.4,130.2,399.3,130.2,400.5 M129.3,400.5
		c0-0.9,0.1-1.6,0.3-2.1c0.2-0.5,0.4-1,0.8-1.3c0.4-0.3,0.8-0.4,1.4-0.4c0.4,0,0.8,0.1,1.1,0.3c0.3,0.2,0.5,0.4,0.7,0.7
		c0.2,0.3,0.4,0.7,0.5,1.1c0.1,0.4,0.2,1,0.2,1.8c0,0.9-0.1,1.6-0.3,2.1c-0.2,0.5-0.4,1-0.8,1.2c-0.4,0.3-0.8,0.4-1.4,0.4
		c-0.7,0-1.3-0.3-1.7-0.8C129.5,402.9,129.3,401.9,129.3,400.5"/>
	<line class="st3" x1="183.5" y1="392.1" x2="183.5" y2="394.4"/>
	<line class="st10" x1="183.5" y1="392.1" x2="183.5" y2="394.4"/>
	<path class="st3" d="M181,402.2l1-0.1c0.1,0.5,0.2,0.8,0.5,1.1c0.3,0.2,0.6,0.4,0.9,0.4c0.4,0,0.8-0.2,1.1-0.5
		c0.3-0.3,0.5-0.8,0.5-1.3c0-0.5-0.2-0.9-0.4-1.2c-0.3-0.3-0.7-0.5-1.2-0.5c-0.3,0-0.6,0.1-0.8,0.2c-0.2,0.1-0.4,0.3-0.6,0.5
		l-0.9-0.1l0.7-3.9h3.7v0.9h-3l-0.4,2c0.4-0.3,0.9-0.5,1.4-0.5c0.6,0,1.2,0.2,1.7,0.7c0.4,0.5,0.7,1,0.7,1.7c0,0.7-0.2,1.3-0.6,1.8
		c-0.5,0.6-1.1,0.9-2,0.9c-0.7,0-1.2-0.2-1.7-0.6C181.3,403.3,181.1,402.8,181,402.2"/>
	<line class="st3" x1="235.2" y1="392.1" x2="235.2" y2="394.4"/>
	<line class="st10" x1="235.2" y1="392.1" x2="235.2" y2="394.4"/>
	<path class="st3" d="M233.3,404.2h-0.9v-5.9c-0.2,0.2-0.5,0.4-0.9,0.6c-0.4,0.2-0.7,0.4-1,0.5v-0.9c0.5-0.2,1-0.5,1.3-0.9
		c0.4-0.3,0.6-0.7,0.8-1h0.6V404.2"/>
	<path class="st3" d="M236.6,400.5c0,1.2,0.1,2.1,0.4,2.5c0.3,0.4,0.6,0.6,1.1,0.6c0.4,0,0.8-0.2,1.1-0.6s0.4-1.2,0.4-2.5
		c0-1.2-0.1-2.1-0.4-2.5c-0.3-0.4-0.6-0.6-1.1-0.6c-0.4,0-0.8,0.2-1,0.5C236.8,398.4,236.6,399.3,236.6,400.5 M235.7,400.5
		c0-0.9,0.1-1.6,0.3-2.1c0.2-0.5,0.4-1,0.8-1.3c0.4-0.3,0.8-0.4,1.4-0.4c0.4,0,0.8,0.1,1.1,0.3c0.3,0.2,0.5,0.4,0.7,0.7
		c0.2,0.3,0.4,0.7,0.5,1.1c0.1,0.4,0.2,1,0.2,1.8c0,0.9-0.1,1.6-0.3,2.1c-0.2,0.5-0.4,1-0.8,1.2c-0.4,0.3-0.8,0.4-1.4,0.4
		c-0.7,0-1.3-0.3-1.7-0.8C235.9,402.9,235.7,401.9,235.7,400.5"/>
	<line class="st3" x1="287" y1="392.1" x2="287" y2="394.4"/>
	<line class="st10" x1="287" y1="392.1" x2="287" y2="394.4"/>
	<path class="st3" d="M285.1,404.2h-0.9v-5.9c-0.2,0.2-0.5,0.4-0.9,0.6c-0.4,0.2-0.7,0.4-1,0.5v-0.9c0.5-0.2,1-0.5,1.3-0.9
		c0.4-0.3,0.6-0.7,0.8-1h0.6V404.2"/>
	<path class="st3" d="M287.4,402.2l1-0.1c0.1,0.5,0.2,0.8,0.5,1.1c0.3,0.2,0.6,0.4,0.9,0.4c0.4,0,0.8-0.2,1.1-0.5
		c0.3-0.3,0.5-0.8,0.5-1.3c0-0.5-0.2-0.9-0.4-1.2c-0.3-0.3-0.7-0.5-1.2-0.5c-0.3,0-0.6,0.1-0.8,0.2c-0.2,0.1-0.4,0.3-0.6,0.5
		l-0.9-0.1l0.7-3.9h3.7v0.9h-3l-0.4,2c0.4-0.3,0.9-0.5,1.4-0.5c0.6,0,1.2,0.2,1.7,0.7c0.4,0.5,0.7,1,0.7,1.7c0,0.7-0.2,1.3-0.6,1.8
		c-0.5,0.6-1.1,0.9-2,0.9c-0.7,0-1.2-0.2-1.7-0.6C287.7,403.3,287.5,402.8,287.4,402.2"/>
	<line class="st3" x1="338.7" y1="392.1" x2="338.7" y2="394.4"/>
	<line class="st10" x1="338.7" y1="392.1" x2="338.7" y2="394.4"/>
	<path class="st3" d="M338.2,403.3v0.9h-4.9c0-0.2,0-0.4,0.1-0.6c0.1-0.3,0.3-0.7,0.6-1c0.3-0.3,0.7-0.7,1.2-1.1
		c0.8-0.7,1.4-1.2,1.7-1.6c0.3-0.4,0.4-0.8,0.4-1.1c0-0.4-0.1-0.7-0.4-0.9c-0.3-0.3-0.6-0.4-1-0.4c-0.4,0-0.8,0.1-1.1,0.4
		c-0.3,0.3-0.4,0.6-0.4,1.1l-0.9-0.1c0.1-0.7,0.3-1.2,0.7-1.6c0.4-0.4,1-0.6,1.7-0.6c0.7,0,1.3,0.2,1.7,0.6c0.4,0.4,0.6,0.9,0.6,1.5
		c0,0.3-0.1,0.6-0.2,0.9c-0.1,0.3-0.3,0.6-0.6,0.9c-0.3,0.3-0.8,0.8-1.4,1.3c-0.6,0.5-0.9,0.8-1.1,0.9s-0.3,0.3-0.4,0.5H338.2"/>
	<path class="st3" d="M340.1,400.5c0,1.2,0.1,2.1,0.4,2.5c0.3,0.4,0.6,0.6,1.1,0.6c0.4,0,0.8-0.2,1.1-0.6c0.3-0.4,0.4-1.2,0.4-2.5
		c0-1.2-0.1-2.1-0.4-2.5c-0.3-0.4-0.6-0.6-1.1-0.6c-0.4,0-0.8,0.2-1,0.5C340.3,398.4,340.1,399.3,340.1,400.5 M339.2,400.5
		c0-0.9,0.1-1.6,0.3-2.1c0.2-0.5,0.4-1,0.8-1.3c0.4-0.3,0.8-0.4,1.4-0.4c0.4,0,0.8,0.1,1.1,0.3c0.3,0.2,0.5,0.4,0.7,0.7
		c0.2,0.3,0.4,0.7,0.5,1.1c0.1,0.4,0.2,1,0.2,1.8c0,0.9-0.1,1.6-0.3,2.1c-0.2,0.5-0.4,1-0.8,1.2c-0.4,0.3-0.8,0.4-1.4,0.4
		c-0.7,0-1.3-0.3-1.7-0.8C339.4,402.9,339.2,401.9,339.2,400.5"/>
	<line class="st3" x1="390.5" y1="392.1" x2="390.5" y2="394.4"/>
	<line class="st10" x1="390.5" y1="392.1" x2="390.5" y2="394.4"/>
	<path class="st3" d="M389.9,403.3v0.9H385c0-0.2,0-0.4,0.1-0.6c0.1-0.3,0.3-0.7,0.6-1c0.3-0.3,0.7-0.7,1.2-1.1
		c0.8-0.7,1.4-1.2,1.7-1.6c0.3-0.4,0.4-0.8,0.4-1.1c0-0.4-0.1-0.7-0.4-0.9c-0.3-0.3-0.6-0.4-1-0.4c-0.4,0-0.8,0.1-1.1,0.4
		c-0.3,0.3-0.4,0.6-0.4,1.1l-0.9-0.1c0.1-0.7,0.3-1.2,0.7-1.6c0.4-0.4,1-0.6,1.7-0.6s1.3,0.2,1.7,0.6c0.4,0.4,0.6,0.9,0.6,1.5
		c0,0.3-0.1,0.6-0.2,0.9c-0.1,0.3-0.3,0.6-0.6,0.9c-0.3,0.3-0.8,0.8-1.4,1.3c-0.6,0.5-0.9,0.8-1.1,0.9s-0.3,0.3-0.4,0.5H389.9"/>
	<path class="st3" d="M390.9,402.2l1-0.1c0.1,0.5,0.2,0.8,0.5,1.1c0.3,0.2,0.6,0.4,0.9,0.4c0.4,0,0.8-0.2,1.1-0.5
		c0.3-0.3,0.5-0.8,0.5-1.3c0-0.5-0.2-0.9-0.4-1.2c-0.3-0.3-0.7-0.5-1.2-0.5c-0.3,0-0.6,0.1-0.8,0.2c-0.2,0.1-0.4,0.3-0.6,0.5
		l-0.9-0.1l0.7-3.9h3.7v0.9h-3l-0.4,2c0.4-0.3,0.9-0.5,1.4-0.5c0.6,0,1.2,0.2,1.7,0.7c0.4,0.5,0.7,1,0.7,1.7c0,0.7-0.2,1.3-0.6,1.8
		c-0.5,0.6-1.1,0.9-2,0.9c-0.7,0-1.2-0.2-1.7-0.6C391.2,403.3,391,402.8,390.9,402.2"/>
	<line class="st3" x1="442.3" y1="392.1" x2="442.3" y2="394.4"/>
	<line class="st10" x1="442.3" y1="392.1" x2="442.3" y2="394.4"/>
	<path class="st3" d="M436.9,402.2l0.9-0.1c0.1,0.5,0.3,0.9,0.5,1.1c0.3,0.2,0.6,0.3,0.9,0.3c0.4,0,0.8-0.1,1.1-0.4
		c0.3-0.3,0.4-0.7,0.4-1.1c0-0.4-0.1-0.8-0.4-1c-0.3-0.3-0.6-0.4-1-0.4c-0.2,0-0.4,0-0.6,0.1l0.1-0.8c0.1,0,0.1,0,0.1,0
		c0.4,0,0.7-0.1,1.1-0.3c0.3-0.2,0.5-0.5,0.5-1c0-0.3-0.1-0.6-0.3-0.8c-0.2-0.2-0.5-0.3-0.9-0.3c-0.4,0-0.7,0.1-0.9,0.3
		c-0.2,0.2-0.4,0.6-0.4,1l-0.9-0.2c0.1-0.6,0.4-1.1,0.8-1.4c0.4-0.3,0.9-0.5,1.5-0.5c0.4,0,0.8,0.1,1.1,0.3c0.3,0.2,0.6,0.4,0.8,0.7
		c0.2,0.3,0.3,0.6,0.3,1s-0.1,0.6-0.3,0.9c-0.2,0.3-0.4,0.5-0.8,0.6c0.4,0.1,0.8,0.3,1,0.6c0.3,0.3,0.4,0.7,0.4,1.2
		c0,0.6-0.2,1.2-0.7,1.7c-0.5,0.5-1.1,0.7-1.8,0.7c-0.7,0-1.2-0.2-1.6-0.6C437.2,403.3,436.9,402.8,436.9,402.2"/>
	<path class="st3" d="M443.6,400.5c0,1.2,0.1,2.1,0.4,2.5c0.3,0.4,0.6,0.6,1.1,0.6c0.4,0,0.8-0.2,1.1-0.6c0.3-0.4,0.4-1.2,0.4-2.5
		c0-1.2-0.1-2.1-0.4-2.5c-0.3-0.4-0.6-0.6-1.1-0.6c-0.4,0-0.8,0.2-1,0.5C443.8,398.4,443.6,399.3,443.6,400.5 M442.7,400.5
		c0-0.9,0.1-1.6,0.3-2.1c0.2-0.5,0.4-1,0.8-1.3c0.4-0.3,0.8-0.4,1.4-0.4c0.4,0,0.8,0.1,1.1,0.3c0.3,0.2,0.5,0.4,0.7,0.7
		c0.2,0.3,0.4,0.7,0.5,1.1c0.1,0.4,0.2,1,0.2,1.8c0,0.9-0.1,1.6-0.3,2.1c-0.2,0.5-0.4,1-0.8,1.2c-0.4,0.3-0.8,0.4-1.4,0.4
		c-0.7,0-1.3-0.3-1.7-0.8C442.9,402.9,442.7,401.9,442.7,400.5"/>
	<line class="st3" x1="494" y1="392.1" x2="494" y2="394.4"/>
	<line class="st10" x1="494" y1="392.1" x2="494" y2="394.4"/>
	<path class="st3" d="M488.6,402.2l0.9-0.1c0.1,0.5,0.3,0.9,0.5,1.1c0.3,0.2,0.6,0.3,0.9,0.3c0.4,0,0.8-0.1,1.1-0.4
		c0.3-0.3,0.4-0.7,0.4-1.1c0-0.4-0.1-0.8-0.4-1c-0.3-0.3-0.6-0.4-1-0.4c-0.2,0-0.4,0-0.6,0.1l0.1-0.8c0.1,0,0.1,0,0.1,0
		c0.4,0,0.7-0.1,1.1-0.3c0.3-0.2,0.5-0.5,0.5-1c0-0.3-0.1-0.6-0.3-0.8c-0.2-0.2-0.5-0.3-0.9-0.3c-0.4,0-0.7,0.1-0.9,0.3
		c-0.2,0.2-0.4,0.6-0.4,1l-0.9-0.2c0.1-0.6,0.4-1.1,0.8-1.4c0.4-0.3,0.9-0.5,1.5-0.5c0.4,0,0.8,0.1,1.1,0.3c0.3,0.2,0.6,0.4,0.8,0.7
		c0.2,0.3,0.3,0.6,0.3,1s-0.1,0.6-0.3,0.9c-0.2,0.3-0.4,0.5-0.8,0.6c0.4,0.1,0.8,0.3,1,0.6c0.3,0.3,0.4,0.7,0.4,1.2
		c0,0.6-0.2,1.2-0.7,1.7c-0.5,0.5-1.1,0.7-1.8,0.7c-0.7,0-1.2-0.2-1.6-0.6C488.9,403.3,488.7,402.8,488.6,402.2"/>
	<path class="st3" d="M494.4,402.2l1-0.1c0.1,0.5,0.2,0.8,0.5,1.1c0.3,0.2,0.6,0.4,0.9,0.4c0.4,0,0.8-0.2,1.1-0.5
		c0.3-0.3,0.5-0.8,0.5-1.3c0-0.5-0.2-0.9-0.4-1.2c-0.3-0.3-0.7-0.5-1.2-0.5c-0.3,0-0.6,0.1-0.8,0.2c-0.2,0.1-0.4,0.3-0.6,0.5
		l-0.9-0.1l0.7-3.9h3.7v0.9h-3l-0.4,2c0.4-0.3,0.9-0.5,1.4-0.5c0.6,0,1.2,0.2,1.7,0.7c0.4,0.5,0.7,1,0.7,1.7c0,0.7-0.2,1.3-0.6,1.8
		c-0.5,0.6-1.1,0.9-2,0.9c-0.7,0-1.2-0.2-1.7-0.6C494.7,403.3,494.5,402.8,494.4,402.2"/>
	<path class="st3" d="M310.2,416.2l1.5,0.4c-0.3,1.2-0.9,2.2-1.7,2.8c-0.8,0.6-1.8,0.9-3,0.9c-1.2,0-2.2-0.2-3-0.7
		c-0.8-0.5-1.3-1.2-1.7-2.1c-0.4-0.9-0.6-1.9-0.6-3c0-1.2,0.2-2.2,0.7-3.1c0.4-0.9,1.1-1.5,1.9-2c0.8-0.4,1.7-0.7,2.7-0.7
		c1.1,0,2.1,0.3,2.8,0.9c0.8,0.6,1.3,1.4,1.6,2.4l-1.5,0.3c-0.3-0.8-0.6-1.4-1.1-1.8c-0.5-0.4-1.1-0.6-1.9-0.6
		c-0.9,0-1.6,0.2-2.2,0.6c-0.6,0.4-1,1-1.2,1.7c-0.2,0.7-0.3,1.4-0.3,2.2c0,1,0.1,1.8,0.4,2.5c0.3,0.7,0.7,1.3,1.3,1.6
		c0.6,0.3,1.2,0.5,1.9,0.5c0.8,0,1.5-0.2,2.1-0.7C309.6,417.8,310,417.1,310.2,416.2"/>
	<path class="st3" d="M314.3,416.1c0,1,0.2,1.8,0.7,2.3c0.4,0.5,1,0.8,1.7,0.8s1.3-0.3,1.7-0.8c0.5-0.5,0.7-1.3,0.7-2.4
		c0-1-0.2-1.8-0.7-2.3c-0.5-0.5-1-0.8-1.7-0.8c-0.7,0-1.3,0.3-1.7,0.8C314.5,414.2,314.3,415,314.3,416.1 M312.8,416.1
		c0-1.5,0.4-2.6,1.3-3.4c0.7-0.6,1.6-0.9,2.6-0.9c1.1,0,2,0.4,2.7,1.1c0.7,0.7,1.1,1.7,1.1,3c0,1.1-0.2,1.9-0.5,2.5
		c-0.3,0.6-0.8,1.1-1.4,1.4c-0.6,0.3-1.3,0.5-2,0.5c-1.1,0-2.1-0.4-2.8-1.1C313.2,418.5,312.8,417.4,312.8,416.1"/>
	<path class="st3" d="M327.4,420.1v-1.2c-0.6,0.9-1.5,1.4-2.6,1.4c-0.5,0-0.9-0.1-1.3-0.3c-0.4-0.2-0.7-0.4-0.9-0.7
		c-0.2-0.3-0.3-0.6-0.4-1c-0.1-0.3-0.1-0.7-0.1-1.3V412h1.4v4.5c0,0.7,0,1.2,0.1,1.5c0.1,0.4,0.3,0.6,0.5,0.8
		c0.3,0.2,0.6,0.3,1.1,0.3c0.4,0,0.8-0.1,1.2-0.3c0.4-0.2,0.6-0.5,0.8-0.9c0.1-0.4,0.2-0.9,0.2-1.6V412h1.4v8.1H327.4"/>
	<path class="st3" d="M330.8,420.1V412h1.2v1.2c0.6-0.9,1.5-1.3,2.6-1.3c0.5,0,0.9,0.1,1.3,0.3c0.4,0.2,0.7,0.4,0.9,0.7
		c0.2,0.3,0.3,0.6,0.4,1c0,0.3,0.1,0.7,0.1,1.3v5H336v-4.9c0-0.6-0.1-1-0.2-1.3c-0.1-0.3-0.3-0.5-0.6-0.7c-0.3-0.2-0.6-0.3-1-0.3
		c-0.6,0-1.1,0.2-1.5,0.6c-0.4,0.4-0.6,1.1-0.6,2.1v4.4H330.8"/>
	<path class="st3" d="M342.5,418.9l0.2,1.2c-0.4,0.1-0.8,0.1-1.1,0.1c-0.5,0-0.9-0.1-1.2-0.2c-0.3-0.2-0.5-0.4-0.6-0.6
		c-0.1-0.3-0.2-0.8-0.2-1.6v-4.7h-1V412h1v-2l1.4-0.8v2.8h1.4v1.1h-1.4v4.8c0,0.4,0,0.7,0.1,0.8c0,0.1,0.1,0.2,0.2,0.3
		c0.1,0.1,0.3,0.1,0.5,0.1C342.1,418.9,342.3,418.9,342.5,418.9"/>
	<line class="st3" x1="131.7" y1="347.5" x2="129.4" y2="347.5"/>
	<line class="st10" x1="131.7" y1="347.5" x2="129.4" y2="347.5"/>
	<path class="st3" d="M73.8,351.2v-7.5h1.5l1.8,5.3c0.2,0.5,0.3,0.9,0.4,1.1c0.1-0.3,0.2-0.7,0.4-1.2l1.8-5.2H81v7.5h-1V345
		l-2.2,6.3h-0.9l-2.2-6.4v6.4H73.8"/>
	<path class="st3" d="M85.9,348.5c-0.3,0.1-0.8,0.3-1.5,0.3c-0.4,0.1-0.6,0.1-0.8,0.2c-0.2,0.1-0.3,0.2-0.4,0.3
		c-0.1,0.1-0.1,0.3-0.1,0.4c0,0.3,0.1,0.4,0.3,0.6s0.5,0.2,0.8,0.2c0.4,0,0.7-0.1,0.9-0.2c0.3-0.2,0.5-0.4,0.6-0.6
		c0.1-0.2,0.1-0.5,0.1-0.9V348.5 M86,350.6c-0.3,0.3-0.7,0.5-1,0.6c-0.3,0.1-0.7,0.2-1,0.2c-0.6,0-1.1-0.1-1.4-0.4
		c-0.3-0.3-0.5-0.7-0.5-1.1c0-0.3,0.1-0.5,0.2-0.7c0.1-0.2,0.3-0.4,0.5-0.5c0.2-0.1,0.4-0.2,0.7-0.3c0.2,0,0.4-0.1,0.8-0.1
		c0.7-0.1,1.3-0.2,1.6-0.3c0-0.1,0-0.2,0-0.2c0-0.4-0.1-0.6-0.3-0.8c-0.2-0.2-0.6-0.3-1.1-0.3c-0.4,0-0.8,0.1-1,0.2
		c-0.2,0.2-0.4,0.4-0.4,0.8l-0.9-0.1c0.1-0.4,0.2-0.7,0.4-0.9c0.2-0.2,0.4-0.4,0.8-0.5c0.4-0.1,0.8-0.2,1.2-0.2
		c0.5,0,0.8,0.1,1.1,0.2c0.3,0.1,0.5,0.2,0.6,0.4c0.1,0.2,0.2,0.4,0.3,0.6c0,0.2,0.1,0.4,0.1,0.9v1.2c0,0.9,0,1.4,0.1,1.6
		c0,0.2,0.1,0.4,0.2,0.6h-1C86.1,351,86,350.8,86,350.6"/>
	<path class="st3" d="M88.3,351.2v-5.4h0.8v0.8c0.2-0.3,0.4-0.5,0.7-0.6c0.3-0.2,0.6-0.2,1-0.2c0.4,0,0.7,0.1,1,0.3
		c0.3,0.2,0.4,0.4,0.5,0.7c0.4-0.6,1-1,1.7-1c0.5,0,1,0.2,1.2,0.4c0.3,0.3,0.4,0.8,0.4,1.4v3.7h-0.9v-3.4c0-0.4,0-0.6-0.1-0.8
		s-0.2-0.3-0.3-0.4c-0.2-0.1-0.3-0.1-0.5-0.1c-0.4,0-0.7,0.1-1,0.4s-0.4,0.7-0.4,1.2v3.1h-0.9v-3.5c0-0.4-0.1-0.7-0.2-0.9
		c-0.1-0.2-0.4-0.3-0.7-0.3c-0.3,0-0.5,0.1-0.7,0.2c-0.2,0.1-0.4,0.3-0.5,0.6c-0.1,0.3-0.1,0.6-0.1,1.1v2.8H88.3"/>
	<path class="st3" d="M97,351.2v-5.4h0.8v0.8c0.2-0.3,0.4-0.5,0.7-0.6c0.3-0.2,0.6-0.2,1-0.2c0.4,0,0.7,0.1,1,0.3
		c0.3,0.2,0.4,0.4,0.5,0.7c0.4-0.6,1-1,1.7-1c0.5,0,1,0.2,1.2,0.4c0.3,0.3,0.4,0.8,0.4,1.4v3.7h-0.9v-3.4c0-0.4,0-0.6-0.1-0.8
		s-0.2-0.3-0.3-0.4c-0.2-0.1-0.3-0.1-0.5-0.1c-0.4,0-0.7,0.1-1,0.4s-0.4,0.7-0.4,1.2v3.1h-0.9v-3.5c0-0.4-0.1-0.7-0.2-0.9
		c-0.1-0.2-0.4-0.3-0.7-0.3c-0.3,0-0.5,0.1-0.7,0.2c-0.2,0.1-0.4,0.3-0.5,0.6c-0.1,0.3-0.1,0.6-0.1,1.1v2.8H97"/>
	<path class="st3" d="M109.2,348.5c-0.3,0.1-0.8,0.3-1.5,0.3c-0.4,0.1-0.6,0.1-0.8,0.2c-0.2,0.1-0.3,0.2-0.4,0.3
		c-0.1,0.1-0.1,0.3-0.1,0.4c0,0.3,0.1,0.4,0.3,0.6c0.2,0.2,0.5,0.2,0.8,0.2c0.4,0,0.7-0.1,0.9-0.2s0.5-0.4,0.6-0.6
		c0.1-0.2,0.1-0.5,0.1-0.9V348.5 M109.2,350.6c-0.3,0.3-0.7,0.5-1,0.6c-0.3,0.1-0.7,0.2-1,0.2c-0.6,0-1.1-0.1-1.4-0.4
		c-0.3-0.3-0.5-0.7-0.5-1.1c0-0.3,0.1-0.5,0.2-0.7c0.1-0.2,0.3-0.4,0.5-0.5c0.2-0.1,0.4-0.2,0.7-0.3c0.2,0,0.4-0.1,0.8-0.1
		c0.7-0.1,1.3-0.2,1.6-0.3c0-0.1,0-0.2,0-0.2c0-0.4-0.1-0.6-0.3-0.8c-0.2-0.2-0.6-0.3-1.1-0.3c-0.4,0-0.8,0.1-1,0.2
		c-0.2,0.2-0.4,0.4-0.4,0.8l-0.9-0.1c0.1-0.4,0.2-0.7,0.4-0.9c0.2-0.2,0.4-0.4,0.8-0.5c0.4-0.1,0.8-0.2,1.2-0.2
		c0.5,0,0.8,0.1,1.1,0.2c0.3,0.1,0.5,0.2,0.6,0.4c0.1,0.2,0.2,0.4,0.3,0.6c0,0.2,0.1,0.4,0.1,0.9v1.2c0,0.9,0,1.4,0.1,1.6
		c0,0.2,0.1,0.4,0.2,0.6h-1C109.3,351,109.3,350.8,109.2,350.6"/>
	<polyline class="st3" points="111.5,351.2 111.5,343.7 112.4,343.7 112.4,351.2 111.5,351.2 	"/>
	<path class="st3" d="M113.8,351.2v-5.4h0.9v5.4H113.8 M113.8,344.8v-1.1h0.9v1.1H113.8"/>
	<path class="st3" d="M119.6,348.5c-0.3,0.1-0.8,0.3-1.5,0.3c-0.4,0.1-0.6,0.1-0.8,0.2c-0.2,0.1-0.3,0.2-0.4,0.3
		c-0.1,0.1-0.1,0.3-0.1,0.4c0,0.3,0.1,0.4,0.3,0.6s0.5,0.2,0.8,0.2c0.4,0,0.7-0.1,0.9-0.2c0.3-0.2,0.5-0.4,0.6-0.6
		c0.1-0.2,0.1-0.5,0.1-0.9V348.5 M119.7,350.6c-0.3,0.3-0.7,0.5-1,0.6c-0.3,0.1-0.7,0.2-1,0.2c-0.6,0-1.1-0.1-1.4-0.4
		c-0.3-0.3-0.5-0.7-0.5-1.1c0-0.3,0.1-0.5,0.2-0.7c0.1-0.2,0.3-0.4,0.5-0.5c0.2-0.1,0.4-0.2,0.7-0.3c0.2,0,0.4-0.1,0.8-0.1
		c0.7-0.1,1.3-0.2,1.6-0.3c0-0.1,0-0.2,0-0.2c0-0.4-0.1-0.6-0.3-0.8c-0.2-0.2-0.6-0.3-1.1-0.3c-0.4,0-0.8,0.1-1,0.2
		c-0.2,0.2-0.4,0.4-0.4,0.8l-0.9-0.1c0.1-0.4,0.2-0.7,0.4-0.9c0.2-0.2,0.4-0.4,0.8-0.5c0.4-0.1,0.8-0.2,1.2-0.2
		c0.5,0,0.8,0.1,1.1,0.2c0.3,0.1,0.5,0.2,0.6,0.4s0.2,0.4,0.3,0.6c0,0.2,0.1,0.4,0.1,0.9v1.2c0,0.9,0,1.4,0.1,1.6
		c0,0.2,0.1,0.4,0.2,0.6h-1C119.8,351,119.7,350.8,119.7,350.6"/>
	<path class="st3" d="M122,351.2v-5.4h0.8v0.8c0.4-0.6,1-0.9,1.7-0.9c0.3,0,0.6,0.1,0.9,0.2c0.3,0.1,0.5,0.3,0.6,0.5
		c0.1,0.2,0.2,0.4,0.3,0.7c0,0.2,0.1,0.5,0.1,0.9v3.3h-0.9v-3.3c0-0.4,0-0.6-0.1-0.8c-0.1-0.2-0.2-0.3-0.4-0.4
		c-0.2-0.1-0.4-0.2-0.6-0.2c-0.4,0-0.7,0.1-1,0.4c-0.3,0.3-0.4,0.7-0.4,1.4v3H122"/>
	<line class="st3" x1="131.7" y1="258.2" x2="129.4" y2="258.2"/>
	<line class="st10" x1="131.7" y1="258.2" x2="129.4" y2="258.2"/>
	<polyline class="st3" points="101.8,262 101.8,254.5 106.9,254.5 106.9,255.4 102.8,255.4 102.8,257.7 106.3,257.7 106.3,258.6 
		102.8,258.6 102.8,262 101.8,262 	"/>
	<path class="st3" d="M111.6,262v-0.8c-0.4,0.6-1,0.9-1.7,0.9c-0.3,0-0.6-0.1-0.9-0.2c-0.3-0.1-0.5-0.3-0.6-0.5
		c-0.1-0.2-0.2-0.4-0.3-0.7c0-0.2-0.1-0.5-0.1-0.9v-3.4h0.9v3c0,0.5,0,0.8,0.1,1c0.1,0.2,0.2,0.4,0.4,0.6c0.2,0.1,0.4,0.2,0.7,0.2
		c0.3,0,0.5-0.1,0.8-0.2c0.2-0.1,0.4-0.3,0.5-0.6c0.1-0.2,0.1-0.6,0.1-1.1v-2.9h0.9v5.4H111.6"/>
	<path class="st3" d="M113.9,262v-5.4h0.8v0.8c0.4-0.6,1-0.9,1.7-0.9c0.3,0,0.6,0.1,0.9,0.2c0.3,0.1,0.5,0.3,0.6,0.5
		c0.1,0.2,0.2,0.4,0.3,0.7c0,0.2,0.1,0.5,0.1,0.9v3.3h-0.9v-3.3c0-0.4,0-0.6-0.1-0.8c-0.1-0.2-0.2-0.3-0.4-0.4
		c-0.2-0.1-0.4-0.2-0.6-0.2c-0.4,0-0.7,0.1-1,0.4s-0.4,0.7-0.4,1.4v3H113.9"/>
	<path class="st3" d="M120.3,259.2c0,0.7,0.1,1.2,0.4,1.6c0.3,0.3,0.6,0.5,1.1,0.5c0.4,0,0.8-0.2,1.1-0.5c0.3-0.3,0.4-0.8,0.4-1.5
		c0-0.7-0.1-1.2-0.4-1.5c-0.3-0.3-0.6-0.5-1.1-0.5c-0.4,0-0.8,0.2-1,0.5C120.4,258,120.3,258.5,120.3,259.2 M119.5,262.4l0.9,0.1
		c0,0.3,0.1,0.5,0.3,0.6c0.2,0.2,0.5,0.3,0.9,0.3c0.4,0,0.8-0.1,1-0.3s0.4-0.4,0.5-0.7c0-0.2,0.1-0.6,0.1-1.2
		c-0.4,0.5-0.9,0.7-1.5,0.7c-0.8,0-1.3-0.3-1.7-0.8c-0.4-0.5-0.6-1.2-0.6-1.9c0-0.5,0.1-1,0.3-1.4c0.2-0.4,0.5-0.8,0.8-1
		c0.4-0.2,0.8-0.4,1.3-0.4c0.6,0,1.2,0.3,1.6,0.8v-0.7h0.8v4.7c0,0.8-0.1,1.4-0.3,1.8s-0.4,0.6-0.8,0.8c-0.4,0.2-0.8,0.3-1.4,0.3
		c-0.6,0-1.2-0.1-1.6-0.4C119.7,263.4,119.5,263,119.5,262.4"/>
	<path class="st3" d="M125.5,262v-5.4h0.9v5.4H125.5 M125.5,255.5v-1.1h0.9v1.1H125.5"/>
	<line class="st3" x1="131.7" y1="169" x2="129.4" y2="169"/>
	<line class="st10" x1="131.7" y1="169" x2="129.4" y2="169"/>
	<path class="st3" d="M90.5,171.9h1.9c0.3,0,0.5,0,0.7,0c0.2,0,0.4-0.1,0.6-0.2c0.1-0.1,0.3-0.2,0.4-0.4c0.1-0.2,0.2-0.4,0.2-0.6
		c0-0.3-0.1-0.5-0.2-0.7c-0.1-0.2-0.3-0.4-0.6-0.4c-0.3-0.1-0.6-0.1-1.1-0.1h-1.7V171.9 M90.5,168.4h1.6c0.4,0,0.8,0,0.9-0.1
		c0.3-0.1,0.4-0.2,0.6-0.4c0.1-0.2,0.2-0.4,0.2-0.6c0-0.3-0.1-0.5-0.2-0.7c-0.1-0.2-0.3-0.3-0.5-0.4c-0.2-0.1-0.6-0.1-1.1-0.1h-1.5
		V168.4 M89.5,172.7v-7.5h2.8c0.6,0,1,0.1,1.4,0.2c0.3,0.2,0.6,0.4,0.8,0.7c0.2,0.3,0.3,0.6,0.3,1c0,0.3-0.1,0.6-0.3,0.9
		c-0.2,0.3-0.4,0.5-0.8,0.7c0.4,0.1,0.8,0.4,1,0.7c0.2,0.3,0.4,0.7,0.4,1.1c0,0.4-0.1,0.7-0.2,1c-0.1,0.3-0.3,0.5-0.5,0.7
		c-0.2,0.2-0.5,0.3-0.8,0.4c-0.3,0.1-0.7,0.1-1.2,0.1H89.5"/>
	<path class="st3" d="M99.9,170c-0.3,0.1-0.8,0.3-1.5,0.3c-0.4,0.1-0.6,0.1-0.8,0.2c-0.2,0.1-0.3,0.2-0.4,0.3
		c-0.1,0.1-0.1,0.3-0.1,0.4c0,0.3,0.1,0.4,0.3,0.6c0.2,0.2,0.5,0.2,0.8,0.2c0.4,0,0.7-0.1,0.9-0.2c0.3-0.2,0.5-0.4,0.6-0.6
		c0.1-0.2,0.1-0.5,0.1-0.9V170 M99.9,172.1c-0.3,0.3-0.7,0.5-1,0.6c-0.3,0.1-0.7,0.2-1,0.2c-0.6,0-1.1-0.1-1.4-0.4
		c-0.3-0.3-0.5-0.7-0.5-1.1c0-0.3,0.1-0.5,0.2-0.7s0.3-0.4,0.5-0.5c0.2-0.1,0.4-0.2,0.7-0.3c0.2,0,0.4-0.1,0.8-0.1
		c0.7-0.1,1.3-0.2,1.6-0.3c0-0.1,0-0.2,0-0.2c0-0.4-0.1-0.6-0.3-0.8c-0.2-0.2-0.6-0.3-1.1-0.3c-0.4,0-0.8,0.1-1,0.2
		c-0.2,0.2-0.4,0.4-0.4,0.8l-0.9-0.1c0.1-0.4,0.2-0.7,0.4-0.9c0.2-0.2,0.4-0.4,0.8-0.5c0.4-0.1,0.8-0.2,1.2-0.2
		c0.5,0,0.8,0.1,1.1,0.2c0.3,0.1,0.5,0.2,0.6,0.4c0.1,0.2,0.2,0.4,0.3,0.6c0,0.2,0.1,0.4,0.1,0.9v1.2c0,0.9,0,1.4,0.1,1.6
		c0,0.2,0.1,0.4,0.2,0.6h-1C100,172.5,100,172.3,99.9,172.1"/>
	<path class="st3" d="M105.8,170.7l0.9,0.1c-0.1,0.6-0.4,1.1-0.8,1.5c-0.4,0.4-0.9,0.5-1.5,0.5c-0.8,0-1.3-0.2-1.8-0.7
		c-0.4-0.5-0.7-1.2-0.7-2.1c0-0.6,0.1-1.1,0.3-1.5c0.2-0.4,0.5-0.8,0.9-1c0.4-0.2,0.8-0.3,1.3-0.3c0.6,0,1.1,0.2,1.4,0.4
		c0.4,0.3,0.6,0.7,0.7,1.3l-0.9,0.1c-0.1-0.4-0.2-0.6-0.4-0.8c-0.2-0.2-0.5-0.3-0.8-0.3c-0.5,0-0.8,0.2-1.1,0.5s-0.4,0.9-0.4,1.6
		c0,0.7,0.1,1.3,0.4,1.6c0.3,0.3,0.6,0.5,1.1,0.5c0.4,0,0.7-0.1,0.9-0.3C105.5,171.6,105.7,171.2,105.8,170.7"/>
	<path class="st3" d="M109.5,171.9l0.1,0.8c-0.3,0-0.5,0.1-0.7,0.1c-0.3,0-0.6-0.1-0.8-0.1c-0.2-0.1-0.3-0.2-0.4-0.4
		c-0.1-0.2-0.1-0.5-0.1-1.1V168H107v-0.7h0.7V166l0.9-0.6v1.9h0.9v0.7h-0.9v3.2c0,0.3,0,0.4,0.1,0.5c0,0.1,0.1,0.1,0.2,0.2
		c0.1,0,0.2,0.1,0.3,0.1C109.2,171.9,109.3,171.9,109.5,171.9"/>
	<path class="st3" d="M111.1,169.5h3c0-0.5-0.2-0.8-0.3-1c-0.3-0.4-0.7-0.5-1.1-0.5c-0.4,0-0.8,0.1-1.1,0.4
		C111.2,168.7,111.1,169,111.1,169.5 M114.1,171l1,0.1c-0.2,0.6-0.4,1-0.8,1.3c-0.4,0.3-0.9,0.4-1.5,0.4c-0.8,0-1.4-0.2-1.9-0.7
		c-0.5-0.5-0.7-1.2-0.7-2.1c0-0.9,0.2-1.6,0.7-2.1c0.5-0.5,1.1-0.8,1.8-0.8c0.7,0,1.3,0.3,1.8,0.7c0.5,0.5,0.7,1.2,0.7,2.1
		c0,0.1,0,0.1,0,0.2h-4c0,0.6,0.2,1.1,0.5,1.4c0.3,0.3,0.7,0.5,1.1,0.5c0.3,0,0.6-0.1,0.9-0.3C113.7,171.7,113.9,171.4,114.1,171"/>
	<path class="st3" d="M116.2,172.7v-5.4h0.8v0.8c0.2-0.4,0.4-0.6,0.6-0.8c0.2-0.1,0.4-0.2,0.6-0.2c0.3,0,0.6,0.1,1,0.3l-0.3,0.9
		c-0.2-0.1-0.4-0.2-0.7-0.2c-0.2,0-0.4,0.1-0.5,0.2c-0.2,0.1-0.3,0.3-0.3,0.5c-0.1,0.3-0.1,0.7-0.1,1.1v2.8H116.2"/>
	<path class="st3" d="M119.7,172.7v-5.4h0.9v5.4H119.7 M119.7,166.3v-1.1h0.9v1.1H119.7"/>
	<path class="st3" d="M125.5,170c-0.3,0.1-0.8,0.3-1.5,0.3c-0.4,0.1-0.6,0.1-0.8,0.2c-0.2,0.1-0.3,0.2-0.4,0.3
		c-0.1,0.1-0.1,0.3-0.1,0.4c0,0.3,0.1,0.4,0.3,0.6c0.2,0.2,0.5,0.2,0.8,0.2c0.4,0,0.7-0.1,0.9-0.2c0.3-0.2,0.5-0.4,0.6-0.6
		c0.1-0.2,0.1-0.5,0.1-0.9V170 M125.5,172.1c-0.3,0.3-0.7,0.5-1,0.6c-0.3,0.1-0.7,0.2-1,0.2c-0.6,0-1.1-0.1-1.4-0.4
		c-0.3-0.3-0.5-0.7-0.5-1.1c0-0.3,0.1-0.5,0.2-0.7s0.3-0.4,0.5-0.5c0.2-0.1,0.4-0.2,0.7-0.3c0.2,0,0.4-0.1,0.8-0.1
		c0.7-0.1,1.3-0.2,1.6-0.3c0-0.1,0-0.2,0-0.2c0-0.4-0.1-0.6-0.3-0.8c-0.2-0.2-0.6-0.3-1.1-0.3c-0.4,0-0.8,0.1-1,0.2
		c-0.2,0.2-0.4,0.4-0.4,0.8l-0.9-0.1c0.1-0.4,0.2-0.7,0.4-0.9c0.2-0.2,0.4-0.4,0.8-0.5c0.4-0.1,0.8-0.2,1.2-0.2
		c0.5,0,0.8,0.1,1.1,0.2c0.3,0.1,0.5,0.2,0.6,0.4c0.1,0.2,0.2,0.4,0.3,0.6c0,0.2,0.1,0.4,0.1,0.9v1.2c0,0.9,0,1.4,0.1,1.6
		c0,0.2,0.1,0.4,0.2,0.6h-1C125.6,172.5,125.6,172.3,125.5,172.1"/>
	<path class="st3" d="M61.7,290c1.3,0,2.4-0.4,3.2-1.1c0.8-0.7,1.2-1.6,1.2-2.7c0-1.1-0.4-2-1.2-2.8c-0.8-0.7-1.9-1.1-3.3-1.1
		c-0.9,0-1.7,0.2-2.4,0.5c-0.7,0.3-1.2,0.8-1.6,1.3c-0.4,0.6-0.6,1.3-0.6,2c0,1.1,0.4,2,1.1,2.7C58.8,289.6,60,290,61.7,290
		 M61.6,291.5c-1.9,0-3.3-0.5-4.4-1.5c-1.1-1-1.6-2.3-1.6-3.9c0-1,0.3-2,0.8-2.8c0.5-0.8,1.2-1.5,2.1-1.9c0.9-0.4,1.9-0.7,3-0.7
		c1.1,0,2.2,0.2,3.1,0.7c0.9,0.5,1.6,1.1,2,2s0.7,1.7,0.7,2.7c0,1.1-0.3,2-0.8,2.8c-0.5,0.8-1.2,1.5-2.1,1.9
		C63.6,291.3,62.7,291.5,61.6,291.5"/>
	<path class="st3" d="M67.1,279H59v-1.2h1.2c-0.6-0.3-0.9-0.6-1.1-0.9c-0.2-0.3-0.3-0.6-0.3-0.9c0-0.5,0.2-0.9,0.4-1.4l1.3,0.5
		c-0.2,0.3-0.3,0.7-0.3,1c0,0.3,0.1,0.6,0.3,0.8c0.2,0.3,0.4,0.4,0.8,0.5c0.5,0.2,1,0.2,1.6,0.2h4.3V279"/>
	<path class="st3" d="M62.9,272.9c1.1,0,1.9-0.2,2.3-0.6c0.5-0.4,0.7-1,0.7-1.6c0-0.6-0.2-1.1-0.7-1.6c-0.5-0.4-1.3-0.6-2.3-0.6
		c-1,0-1.7,0.2-2.2,0.7c-0.5,0.4-0.8,1-0.8,1.6c0,0.6,0.3,1.1,0.8,1.6C61.2,272.7,61.9,272.9,62.9,272.9 M67.8,274l0.2-1.3
		c0.4-0.1,0.7-0.2,0.9-0.5c0.3-0.3,0.4-0.8,0.4-1.4c0-0.6-0.1-1.1-0.4-1.5c-0.3-0.3-0.6-0.6-1.1-0.7c-0.3-0.1-0.9-0.1-1.8-0.1
		c0.7,0.6,1.1,1.4,1.1,2.3c0,1.1-0.4,2-1.2,2.6c-0.8,0.6-1.8,0.9-2.9,0.9c-0.8,0-1.5-0.1-2.2-0.4s-1.2-0.7-1.5-1.2
		c-0.3-0.5-0.5-1.2-0.5-1.9c0-1,0.4-1.7,1.2-2.4h-1v-1.3h7c1.3,0,2.1,0.1,2.7,0.4s0.9,0.7,1.3,1.2c0.3,0.6,0.5,1.2,0.5,2.1
		c0,1-0.2,1.8-0.7,2.4C69.3,273.8,68.7,274.1,67.8,274"/>
	<path class="st3" d="M63,259.9c0.2,0.5,0.4,1.3,0.5,2.3c0.1,0.6,0.2,1,0.3,1.2c0.1,0.2,0.3,0.4,0.4,0.5c0.2,0.1,0.4,0.2,0.7,0.2
		c0.4,0,0.7-0.1,0.9-0.4c0.3-0.3,0.4-0.7,0.4-1.2s-0.1-1-0.3-1.4c-0.2-0.4-0.5-0.7-1-0.9c-0.3-0.1-0.8-0.2-1.4-0.2H63 M66.1,259.7
		c0.4,0.5,0.8,1,0.9,1.5c0.2,0.5,0.3,1,0.3,1.5c0,0.9-0.2,1.6-0.6,2.1c-0.4,0.5-1,0.7-1.7,0.7c-0.4,0-0.8-0.1-1.1-0.3
		c-0.3-0.2-0.6-0.4-0.8-0.7c-0.2-0.3-0.3-0.6-0.5-1c-0.1-0.3-0.1-0.7-0.2-1.2c-0.1-1.1-0.3-1.9-0.5-2.5c-0.2,0-0.3,0-0.4,0
		c-0.6,0-1,0.1-1.2,0.4c-0.3,0.4-0.5,0.9-0.5,1.6c0,0.7,0.1,1.1,0.3,1.4c0.2,0.3,0.6,0.5,1.2,0.7l-0.2,1.3c-0.6-0.1-1-0.3-1.4-0.6
		c-0.3-0.3-0.6-0.7-0.8-1.2s-0.3-1.1-0.3-1.9c0-0.7,0.1-1.3,0.3-1.7s0.4-0.8,0.6-1c0.3-0.2,0.5-0.3,0.9-0.4c0.3,0,0.7-0.1,1.3-0.1
		h1.8c1.3,0,2.1,0,2.4-0.1c0.3-0.1,0.7-0.2,1-0.4v1.4C66.8,259.6,66.5,259.7,66.1,259.7"/>
	<path class="st3" d="M67.1,256.3H59v-1.2h1.2c-0.9-0.6-1.3-1.5-1.3-2.6c0-0.5,0.1-0.9,0.3-1.3c0.2-0.4,0.4-0.7,0.7-0.9
		c0.3-0.2,0.6-0.3,1-0.4c0.3,0,0.7-0.1,1.3-0.1h5v1.4h-4.9c-0.6,0-1,0.1-1.3,0.2c-0.3,0.1-0.5,0.3-0.7,0.6c-0.2,0.3-0.3,0.6-0.3,1
		c0,0.6,0.2,1.1,0.6,1.5c0.4,0.4,1.1,0.6,2.1,0.6h4.4V256.3"/>
	<path class="st3" d="M67.1,247.6H59v-1.4h8.1V247.6 M57.5,247.6h-1.6v-1.4h1.6V247.6"/>
	<path class="st3" d="M64.7,244.7l-0.2-1.4c0.5-0.1,1-0.3,1.3-0.6c0.3-0.3,0.4-0.8,0.4-1.5s-0.1-1.1-0.4-1.4
		c-0.3-0.3-0.6-0.5-0.9-0.5c-0.3,0-0.5,0.1-0.7,0.4c-0.1,0.2-0.3,0.7-0.5,1.4c-0.3,1-0.5,1.7-0.7,2.1c-0.2,0.4-0.4,0.7-0.8,0.9
		s-0.7,0.3-1.1,0.3c-0.4,0-0.7-0.1-1-0.3c-0.3-0.2-0.6-0.4-0.8-0.7c-0.2-0.2-0.3-0.5-0.4-0.9c-0.1-0.4-0.2-0.8-0.2-1.2
		c0-0.6,0.1-1.2,0.3-1.7c0.2-0.5,0.4-0.8,0.7-1.1c0.3-0.2,0.7-0.4,1.3-0.5l0.2,1.3c-0.4,0.1-0.7,0.3-1,0.5c-0.2,0.3-0.4,0.7-0.4,1.2
		c0,0.6,0.1,1.1,0.3,1.4c0.2,0.3,0.5,0.4,0.7,0.4c0.2,0,0.3,0,0.5-0.2c0.2-0.1,0.3-0.3,0.4-0.5c0.1-0.1,0.2-0.5,0.4-1.2
		c0.3-1,0.5-1.7,0.6-2c0.2-0.4,0.4-0.7,0.7-0.9c0.3-0.2,0.7-0.3,1.2-0.3s0.9,0.1,1.3,0.4c0.4,0.3,0.7,0.7,0.9,1.2
		c0.2,0.5,0.3,1.1,0.3,1.7c0,1.1-0.2,1.9-0.6,2.4C66.2,244.2,65.6,244.5,64.7,244.7"/>
	<path class="st3" d="M67.1,236.3H59V235h1.1c-0.4-0.3-0.7-0.6-1-1c-0.2-0.4-0.4-0.9-0.4-1.5c0-0.6,0.1-1.1,0.4-1.5
		c0.3-0.4,0.6-0.7,1.1-0.8c-0.9-0.6-1.4-1.5-1.4-2.5c0-0.8,0.2-1.4,0.7-1.9c0.4-0.4,1.1-0.7,2.1-0.7h5.6v1.4H62
		c-0.5,0-0.9,0-1.2,0.1c-0.3,0.1-0.4,0.3-0.6,0.5c-0.1,0.2-0.2,0.5-0.2,0.8c0,0.6,0.2,1.1,0.6,1.4c0.4,0.4,1,0.6,1.8,0.6h4.7v1.4
		h-5.3c-0.6,0-1.1,0.1-1.4,0.3c-0.3,0.2-0.5,0.6-0.5,1.1c0,0.4,0.1,0.8,0.3,1.1c0.2,0.3,0.5,0.6,0.9,0.7c0.4,0.2,1,0.2,1.7,0.2h4.2
		V236.3"/>
	<line class="st11" x1="131.7" y1="392.1" x2="131.7" y2="124.4"/>
	<line class="st11" x1="512.1" y1="392.1" x2="512.1" y2="124.4"/>
	<line class="st11" x1="131.7" y1="392.1" x2="512.1" y2="392.1"/>
	<line class="st11" x1="131.7" y1="124.4" x2="512.1" y2="124.4"/>
	<g class="st3">
		<path class="st12" d="M372.8,386.9h132c1.4,0,2.1-0.7,2.1-2.1v-29.7c0-1.4-0.7-2.1-2.1-2.1h-132c-1.4,0-2.1,0.7-2.1,2.1v29.7
			C370.7,386.2,371.4,386.9,372.8,386.9z"/>
		<path class="st13" d="M372.8,386.9h132c1.4,0,2.1-0.7,2.1-2.1v-29.7c0-1.4-0.7-2.1-2.1-2.1h-132c-1.4,0-2.1,0.7-2.1,2.1v29.7
			C370.7,386.2,371.4,386.9,372.8,386.9z"/>
	</g>
	<rect x="374.8" y="357.8" class="st3" width="20.9" height="7.3"/>
	<path class="st3" d="M408.3,357.4c1.1,0,1.9,0.4,2.6,1.1c0.6,0.7,1,1.7,1,2.9c0,1.2-0.3,2.2-1,2.9c-0.6,0.7-1.5,1.1-2.6,1.1
		c-1.1,0-1.9-0.4-2.6-1.1c-0.6-0.7-1-1.7-1-2.9c0-1.2,0.3-2.2,1-2.9C406.3,357.8,407.2,357.4,408.3,357.4 M408.3,358.2
		c-0.8,0-1.3,0.3-1.8,0.8c-0.4,0.6-0.7,1.3-0.7,2.3s0.2,1.7,0.7,2.3c0.4,0.6,1,0.8,1.8,0.8c0.7,0,1.3-0.3,1.8-0.8
		c0.4-0.6,0.7-1.3,0.7-2.3s-0.2-1.7-0.7-2.3C409.6,358.5,409,358.2,408.3,358.2"/>
	<path class="st3" d="M416.7,360.3c-0.1-0.1-0.2-0.1-0.3-0.1c-0.1,0-0.3,0-0.4,0c-0.5,0-0.9,0.2-1.2,0.5c-0.3,0.3-0.4,0.8-0.4,1.5v3
		h-0.9v-5.7h0.9v0.9c0.2-0.3,0.4-0.6,0.8-0.8c0.3-0.2,0.7-0.3,1.2-0.3c0.1,0,0.1,0,0.2,0c0.1,0,0.2,0,0.3,0V360.3"/>
	<path class="st3" d="M417.7,357.2h0.9v1.2h-0.9V357.2 M417.7,359.4h0.9v5.7h-0.9V359.4"/>
	<path class="st3" d="M425.3,364.4c0,1-0.2,1.7-0.6,2.2c-0.4,0.5-1.1,0.7-2,0.7c-0.3,0-0.6,0-0.9-0.1c-0.3-0.1-0.6-0.1-0.9-0.2v-0.9
		c0.3,0.1,0.5,0.3,0.8,0.3c0.3,0.1,0.5,0.1,0.8,0.1c0.6,0,1.1-0.2,1.4-0.5c0.3-0.3,0.5-0.8,0.5-1.5v-0.5c-0.2,0.3-0.4,0.6-0.8,0.8
		c-0.3,0.2-0.7,0.3-1.1,0.3c-0.7,0-1.3-0.3-1.7-0.8c-0.4-0.5-0.6-1.2-0.6-2.1c0-0.9,0.2-1.6,0.6-2.1c0.4-0.5,1-0.8,1.7-0.8
		c0.4,0,0.8,0.1,1.1,0.3c0.3,0.2,0.6,0.4,0.8,0.8v-0.9h0.9V364.4 M424.3,362.2c0-0.7-0.1-1.2-0.4-1.6c-0.3-0.4-0.7-0.6-1.2-0.6
		s-0.9,0.2-1.2,0.6s-0.4,0.9-0.4,1.6c0,0.7,0.1,1.2,0.4,1.6s0.7,0.6,1.2,0.6s0.9-0.2,1.2-0.6C424.2,363.4,424.3,362.9,424.3,362.2"
		/>
	<path class="st3" d="M427.2,357.2h0.9v1.2h-0.9V357.2 M427.2,359.4h0.9v5.7h-0.9V359.4"/>
	<path class="st3" d="M434.9,361.7v3.5h-0.9v-3.4c0-0.5-0.1-0.9-0.3-1.2c-0.2-0.3-0.5-0.4-0.9-0.4c-0.5,0-0.9,0.2-1.2,0.5
		c-0.3,0.3-0.4,0.8-0.4,1.3v3.2h-0.9v-5.7h0.9v0.9c0.2-0.3,0.5-0.6,0.8-0.8c0.3-0.2,0.7-0.3,1.1-0.3c0.6,0,1.2,0.2,1.5,0.6
		C434.7,360.3,434.9,360.9,434.9,361.7"/>
	<path class="st3" d="M441.2,361.9v3.3h-0.9v-0.9c-0.2,0.4-0.5,0.6-0.8,0.8c-0.3,0.2-0.7,0.2-1.2,0.2c-0.6,0-1.1-0.2-1.4-0.5
		c-0.3-0.3-0.5-0.8-0.5-1.3c0-0.6,0.2-1.1,0.6-1.5c0.4-0.3,1.1-0.5,1.9-0.5h1.3v-0.1c0-0.4-0.1-0.8-0.4-1c-0.3-0.2-0.7-0.4-1.2-0.4
		c-0.3,0-0.6,0-1,0.1c-0.3,0.1-0.6,0.2-0.9,0.3v-0.9c0.3-0.1,0.7-0.2,1-0.3c0.3-0.1,0.6-0.1,1-0.1c0.8,0,1.4,0.2,1.9,0.6
		C441,360.4,441.2,361,441.2,361.9 M439.4,362.3c-0.8,0-1.3,0.1-1.6,0.3c-0.3,0.2-0.4,0.5-0.4,0.9c0,0.3,0.1,0.6,0.3,0.8
		c0.2,0.2,0.5,0.3,0.9,0.3c0.5,0,0.9-0.2,1.3-0.6c0.3-0.4,0.5-0.9,0.5-1.5v-0.2H439.4"/>
	<polyline class="st3" points="443.2,357.2 444.1,357.2 444.1,365.2 443.2,365.2 443.2,357.2 	"/>
	<path class="st3" d="M453.5,362.3c0-0.7-0.1-1.2-0.4-1.6c-0.3-0.4-0.7-0.6-1.2-0.6c-0.5,0-0.9,0.2-1.2,0.6
		c-0.3,0.4-0.4,0.9-0.4,1.6s0.1,1.2,0.4,1.6c0.3,0.4,0.7,0.6,1.2,0.6c0.5,0,0.9-0.2,1.2-0.6C453.4,363.5,453.5,363,453.5,362.3
		 M450.3,364.3v3h-0.9v-7.9h0.9v0.9c0.2-0.3,0.4-0.6,0.7-0.8c0.3-0.2,0.7-0.3,1.1-0.3c0.7,0,1.3,0.3,1.7,0.8
		c0.4,0.6,0.6,1.3,0.6,2.2c0,0.9-0.2,1.6-0.6,2.2c-0.4,0.5-1,0.8-1.7,0.8c-0.4,0-0.8-0.1-1.1-0.2
		C450.8,364.9,450.5,364.6,450.3,364.3"/>
	<path class="st3" d="M459.4,360.3c-0.1-0.1-0.2-0.1-0.3-0.1c-0.1,0-0.3,0-0.4,0c-0.5,0-0.9,0.2-1.2,0.5c-0.3,0.3-0.4,0.8-0.4,1.5v3
		H456v-5.7h0.9v0.9c0.2-0.3,0.4-0.6,0.8-0.8c0.3-0.2,0.7-0.3,1.2-0.3c0.1,0,0.1,0,0.2,0c0.1,0,0.2,0,0.3,0V360.3"/>
	<path class="st3" d="M462.6,359.3c0.8,0,1.5,0.3,1.9,0.8c0.5,0.5,0.7,1.3,0.7,2.2s-0.2,1.7-0.7,2.2c-0.5,0.5-1.1,0.8-1.9,0.8
		c-0.8,0-1.5-0.3-1.9-0.8c-0.5-0.5-0.7-1.3-0.7-2.2s0.2-1.7,0.7-2.2C461.1,359.6,461.7,359.3,462.6,359.3 M462.6,360.1
		c-0.5,0-0.9,0.2-1.2,0.6c-0.3,0.4-0.4,0.9-0.4,1.6c0,0.7,0.1,1.2,0.4,1.6c0.3,0.4,0.7,0.6,1.2,0.6c0.5,0,0.9-0.2,1.2-0.6
		c0.3-0.4,0.4-0.9,0.4-1.6c0-0.7-0.1-1.2-0.4-1.6C463.5,360.3,463.1,360.1,462.6,360.1"/>
	<path class="st3" d="M471.2,360.5c0.2-0.4,0.5-0.7,0.8-0.9c0.3-0.2,0.7-0.3,1.2-0.3c0.6,0,1,0.2,1.4,0.6c0.3,0.4,0.5,1,0.5,1.8v3.5
		h-0.9v-3.4c0-0.5-0.1-1-0.3-1.2c-0.2-0.3-0.5-0.4-0.9-0.4c-0.5,0-0.9,0.2-1.2,0.5c-0.3,0.3-0.4,0.8-0.4,1.3v3.2h-0.9v-3.4
		c0-0.5-0.1-1-0.3-1.2c-0.2-0.3-0.5-0.4-0.9-0.4c-0.5,0-0.9,0.2-1.2,0.5c-0.3,0.3-0.4,0.8-0.4,1.3v3.2h-0.9v-5.7h0.9v0.9
		c0.2-0.3,0.5-0.6,0.8-0.8c0.3-0.2,0.6-0.3,1.1-0.3c0.4,0,0.8,0.1,1.1,0.3C470.9,359.8,471.1,360.1,471.2,360.5"/>
	<path class="st3" d="M479.2,359.3c0.8,0,1.5,0.3,1.9,0.8c0.5,0.5,0.7,1.3,0.7,2.2s-0.2,1.7-0.7,2.2c-0.5,0.5-1.1,0.8-1.9,0.8
		c-0.8,0-1.5-0.3-1.9-0.8c-0.5-0.5-0.7-1.3-0.7-2.2s0.2-1.7,0.7-2.2C477.7,359.6,478.3,359.3,479.2,359.3 M479.2,360.1
		c-0.5,0-0.9,0.2-1.2,0.6c-0.3,0.4-0.4,0.9-0.4,1.6c0,0.7,0.1,1.2,0.4,1.6c0.3,0.4,0.7,0.6,1.2,0.6c0.5,0,0.9-0.2,1.2-0.6
		c0.3-0.4,0.4-0.9,0.4-1.6c0-0.7-0.1-1.2-0.4-1.6C480.1,360.3,479.7,360.1,479.2,360.1"/>
	<path class="st3" d="M484.3,357.8v1.6h1.9v0.7h-1.9v3.1c0,0.5,0.1,0.8,0.2,0.9c0.1,0.1,0.4,0.2,0.8,0.2h1v0.8h-1
		c-0.7,0-1.2-0.1-1.5-0.4c-0.3-0.3-0.4-0.8-0.4-1.5v-3.1h-0.7v-0.7h0.7v-1.6H484.3"/>
	<path class="st3" d="M491.4,361.8c0-0.5-0.2-0.9-0.4-1.2c-0.3-0.3-0.7-0.5-1.1-0.5c-0.5,0-0.9,0.2-1.3,0.4
		c-0.3,0.3-0.5,0.7-0.5,1.2H491.4 M492.4,362.1v0.5H488c0,0.6,0.2,1.2,0.6,1.5c0.3,0.3,0.8,0.5,1.5,0.5c0.4,0,0.7,0,1-0.1
		c0.3-0.1,0.7-0.2,1-0.4v0.9c-0.3,0.1-0.7,0.3-1,0.3s-0.7,0.1-1.1,0.1c-0.9,0-1.6-0.3-2.2-0.8c-0.5-0.5-0.8-1.2-0.8-2.2
		c0-0.9,0.3-1.7,0.8-2.2c0.5-0.5,1.2-0.8,2.1-0.8c0.8,0,1.4,0.3,1.8,0.7C492.1,360.5,492.4,361.2,492.4,362.1"/>
	<path class="st3" d="M497.2,360.3c-0.1-0.1-0.2-0.1-0.3-0.1c-0.1,0-0.3,0-0.4,0c-0.5,0-0.9,0.2-1.2,0.5c-0.3,0.3-0.4,0.8-0.4,1.5v3
		h-0.9v-5.7h0.9v0.9c0.2-0.3,0.4-0.6,0.8-0.8c0.3-0.2,0.7-0.3,1.2-0.3c0.1,0,0.1,0,0.2,0c0.1,0,0.2,0,0.3,0V360.3"/>
	<path class="st3" d="M501.8,359.6v0.9c-0.3-0.1-0.5-0.2-0.8-0.3c-0.3-0.1-0.6-0.1-0.9-0.1c-0.5,0-0.8,0.1-1.1,0.2
		c-0.2,0.1-0.3,0.4-0.3,0.6c0,0.2,0.1,0.4,0.3,0.5c0.2,0.1,0.5,0.3,1,0.4l0.3,0.1c0.7,0.1,1.1,0.4,1.4,0.6c0.3,0.3,0.4,0.6,0.4,1.1
		c0,0.5-0.2,1-0.6,1.3c-0.4,0.3-1,0.5-1.7,0.5c-0.3,0-0.6,0-1-0.1c-0.3-0.1-0.7-0.1-1-0.3v-1c0.3,0.2,0.7,0.3,1,0.4
		c0.3,0.1,0.7,0.1,1,0.1c0.4,0,0.8-0.1,1-0.2c0.2-0.1,0.4-0.4,0.4-0.6c0-0.3-0.1-0.4-0.3-0.6c-0.2-0.1-0.5-0.3-1.1-0.4l-0.3-0.1
		c-0.6-0.1-1-0.3-1.3-0.6c-0.3-0.3-0.4-0.6-0.4-1c0-0.5,0.2-1,0.6-1.2c0.4-0.3,0.9-0.4,1.6-0.4c0.3,0,0.7,0,1,0.1
		C501.3,359.4,501.6,359.5,501.8,359.6"/>
	<rect x="374.8" y="373.2" class="st14" width="20.9" height="7.3"/>
	<polyline class="st3" points="407.1,380.5 404.2,372.9 405.3,372.9 407.7,379.3 410.1,372.9 411.2,372.9 408.3,380.5 407.1,380.5 	
		"/>
	<path class="st3" d="M416.8,377.2v3.3h-0.9v-0.9c-0.2,0.4-0.5,0.6-0.8,0.8s-0.7,0.2-1.2,0.2c-0.6,0-1.1-0.2-1.4-0.5
		c-0.3-0.3-0.5-0.8-0.5-1.3c0-0.6,0.2-1.1,0.6-1.5c0.4-0.3,1.1-0.5,1.9-0.5h1.3v-0.1c0-0.4-0.1-0.8-0.4-1c-0.3-0.2-0.7-0.4-1.2-0.4
		c-0.3,0-0.6,0-1,0.1c-0.3,0.1-0.6,0.2-0.9,0.3v-0.9c0.3-0.1,0.7-0.2,1-0.3c0.3-0.1,0.6-0.1,1-0.1c0.8,0,1.4,0.2,1.9,0.6
		C416.6,375.7,416.8,376.4,416.8,377.2 M414.9,377.6c-0.8,0-1.3,0.1-1.6,0.3c-0.3,0.2-0.4,0.5-0.4,0.9c0,0.3,0.1,0.6,0.3,0.8
		c0.2,0.2,0.5,0.3,0.9,0.3c0.5,0,0.9-0.2,1.3-0.6c0.3-0.4,0.5-0.9,0.5-1.5v-0.2H414.9"/>
	<path class="st3" d="M422,375.7c-0.1-0.1-0.2-0.1-0.3-0.1c-0.1,0-0.3,0-0.4,0c-0.5,0-0.9,0.2-1.2,0.5c-0.3,0.3-0.4,0.8-0.4,1.5v3
		h-0.9v-5.7h0.9v0.9c0.2-0.3,0.4-0.6,0.8-0.8c0.3-0.2,0.7-0.3,1.2-0.3c0.1,0,0.1,0,0.2,0c0.1,0,0.2,0,0.3,0V375.7"/>
	<path class="st3" d="M423,372.6h0.9v1.2H423V372.6 M423,374.8h0.9v5.7H423V374.8"/>
	<path class="st3" d="M429.9,377.1c0-0.5-0.2-0.9-0.4-1.2c-0.3-0.3-0.7-0.5-1.1-0.5c-0.5,0-0.9,0.2-1.3,0.4
		c-0.3,0.3-0.5,0.7-0.5,1.2H429.9 M430.8,377.4v0.5h-4.3c0,0.6,0.2,1.2,0.6,1.5c0.3,0.3,0.8,0.5,1.5,0.5c0.4,0,0.7,0,1-0.1
		s0.7-0.2,1-0.4v0.9c-0.3,0.1-0.7,0.3-1,0.3c-0.4,0.1-0.7,0.1-1.1,0.1c-0.9,0-1.6-0.3-2.2-0.8c-0.5-0.5-0.8-1.2-0.8-2.2
		c0-0.9,0.3-1.7,0.8-2.2c0.5-0.5,1.2-0.8,2.1-0.8c0.8,0,1.4,0.3,1.8,0.7C430.6,375.9,430.8,376.6,430.8,377.4"/>
	<path class="st3" d="M437.1,377.1v3.5h-0.9v-3.4c0-0.5-0.1-0.9-0.3-1.2s-0.5-0.4-0.9-0.4c-0.5,0-0.9,0.2-1.2,0.5
		c-0.3,0.3-0.4,0.8-0.4,1.3v3.2h-0.9v-5.7h0.9v0.9c0.2-0.3,0.5-0.6,0.8-0.8c0.3-0.2,0.7-0.3,1.1-0.3c0.6,0,1.2,0.2,1.5,0.6
		C436.9,375.7,437.1,376.3,437.1,377.1"/>
	<path class="st3" d="M439.9,373.2v1.6h1.9v0.7h-1.9v3.1c0,0.5,0.1,0.8,0.2,0.9c0.1,0.1,0.4,0.2,0.8,0.2h1v0.8h-1
		c-0.7,0-1.2-0.1-1.5-0.4c-0.3-0.3-0.4-0.8-0.4-1.5v-3.1h-0.7v-0.7h0.7v-1.6H439.9"/>
	<path class="st3" d="M446.7,375v0.9c-0.3-0.1-0.5-0.2-0.8-0.3c-0.3-0.1-0.6-0.1-0.9-0.1c-0.5,0-0.8,0.1-1.1,0.2
		c-0.2,0.1-0.3,0.4-0.3,0.6c0,0.2,0.1,0.4,0.3,0.5c0.2,0.1,0.5,0.3,1,0.4l0.3,0.1c0.7,0.1,1.1,0.4,1.4,0.6c0.3,0.3,0.4,0.6,0.4,1.1
		c0,0.5-0.2,1-0.6,1.3c-0.4,0.3-1,0.5-1.7,0.5c-0.3,0-0.6,0-1-0.1c-0.3-0.1-0.7-0.1-1-0.3v-1c0.3,0.2,0.7,0.3,1,0.4
		c0.3,0.1,0.7,0.1,1,0.1c0.4,0,0.8-0.1,1-0.2c0.2-0.1,0.4-0.4,0.4-0.6c0-0.3-0.1-0.4-0.3-0.6c-0.2-0.1-0.5-0.3-1.1-0.4l-0.3-0.1
		c-0.6-0.1-1-0.3-1.3-0.6c-0.3-0.3-0.4-0.6-0.4-1c0-0.5,0.2-1,0.6-1.2c0.4-0.3,0.9-0.4,1.6-0.4c0.3,0,0.7,0,1,0.1
		C446.2,374.8,446.5,374.9,446.7,375"/>
</g>
</svg>
